<?xml version="1.0" standalone="no"?>
<!DOCTYPE svg PUBLIC "-//W3C//DTD SVG 20010904//EN"
 "http://www.w3.org/TR/2001/REC-SVG-20010904/DTD/svg10.dtd">
<svg version="1.0" xmlns="http://www.w3.org/2000/svg"
 width="240.000000pt" height="240.000000pt" viewBox="0 0 240.000000 240.000000"
 preserveAspectRatio="xMidYMid meet">

<g transform="translate(0.000000,240.000000) scale(0.100000,-0.100000)"
fill="#000000" stroke="none">
<path d="M1058 2390 c-160 -20 -287 -61 -428 -137 -223 -121 -390 -294 -505
-527 -199 -403 -153 -889 119 -1248 176 -233 439 -398 723 -455 119 -23 347
-23 466 0 472 94 850 472 944 944 23 119 23 347 0 466 -92 465 -461 840 -922
938 -104 22 -300 32 -397 19z m190 -27 c-27 -2 -69 -2 -95 0 -27 2 -5 3 47 3
52 0 74 -1 48 -3z m-301 -29 c-3 -3 -12 -4 -19 -1 -8 3 -5 6 6 6 11 1 17 -2
13 -5z m530 0 c-3 -3 -12 -4 -19 -1 -8 3 -5 6 6 6 11 1 17 -2 13 -5z m-627
-24 c-8 -5 -19 -10 -25 -10 -5 0 -3 5 5 10 8 5 20 10 25 10 6 0 3 -5 -5 -10z
m720 0 c8 -5 11 -10 5 -10 -5 0 -17 5 -25 10 -8 5 -10 10 -5 10 6 0 17 -5 25
-10z m-550 -15 c0 -8 -9 -15 -20 -15 -25 0 -26 17 -2 23 9 3 18 5 20 6 1 0 2
-6 2 -14z m-250 -15 c-8 -5 -19 -10 -25 -10 -5 0 -3 5 5 10 8 5 20 10 25 10 6
0 3 -5 -5 -10z m470 -60 c0 -63 -2 -70 -20 -70 -13 0 -20 7 -20 20 0 33 -74
22 -83 -12 -4 -12 -12 -18 -24 -16 -15 3 -18 14 -20 63 -2 76 9 85 99 85 l68
0 0 -70z m-205 3 c3 -27 9 -58 12 -70 4 -19 1 -23 -19 -23 -22 0 -25 6 -35 63
-12 69 -10 77 16 77 15 0 20 -11 26 -47z m-325 33 c0 -2 -7 -7 -16 -10 -8 -3
-12 -2 -9 4 6 10 25 14 25 6z m796 -11 c74 -22 77 -26 69 -75 -11 -62 -33 -81
-85 -69 -23 5 -58 16 -77 24 -33 14 -35 17 -29 51 17 87 32 96 122 69z m-567
-40 c8 -22 18 -42 22 -45 4 -3 12 -17 18 -32 8 -23 7 -27 -12 -32 -12 -3 -24
-1 -27 4 -4 6 -31 2 -69 -11 -35 -12 -66 -18 -71 -13 -4 5 -15 33 -25 63 -15
45 -15 55 -4 62 23 14 28 11 40 -32 15 -48 28 -56 69 -39 35 14 35 16 15 64
-9 20 -13 41 -9 47 12 21 39 3 53 -36z m-289 21 c0 -2 -7 -7 -16 -10 -8 -3
-12 -2 -9 4 6 10 25 14 25 6z m1125 -6 c3 -6 -1 -7 -9 -4 -18 7 -21 14 -7 14
6 0 13 -4 16 -10z m-1185 -24 c0 -3 -15 -14 -32 -26 l-33 -22 30 26 c31 27 35
29 35 22z m110 -10 c0 -14 -29 -31 -38 -21 -6 6 18 35 29 35 5 0 9 -6 9 -14z
m995 -38 c6 -26 10 -29 35 -23 17 4 40 1 56 -8 l26 -14 -46 -13 c-35 -9 -45
-17 -42 -29 2 -9 8 -31 11 -49 l7 -34 -25 17 c-14 9 -29 30 -32 47 -7 30 -12
31 -55 14 -8 -3 -26 3 -39 13 l-23 18 46 13 c35 10 45 17 42 29 -3 9 -8 29
-12 44 -6 27 -5 27 19 16 16 -7 29 -23 32 -41z m136 35 c13 -16 12 -17 -3 -4
-10 7 -18 15 -18 17 0 8 8 3 21 -13z m-1090 -74 c24 -49 28 -64 17 -70 -22
-15 -27 -11 -58 51 -28 55 -29 60 -12 69 9 6 18 11 19 11 2 0 17 -28 34 -61z
m1194 1 c10 -11 16 -20 13 -20 -3 0 -13 9 -23 20 -10 11 -16 20 -13 20 3 0 13
-9 23 -20z m-1455 7 c0 -2 -10 -12 -22 -23 l-23 -19 19 23 c18 21 26 27 26 19z
m178 -51 c37 -48 40 -56 25 -67 -13 -12 -20 -8 -48 26 -33 38 -33 38 -59 22
-31 -21 -32 -26 -5 -71 16 -28 18 -39 9 -56 -14 -26 -34 -21 -38 10 -2 13 -15
39 -29 57 -14 19 -23 37 -19 41 17 17 112 91 117 91 4 1 25 -23 47 -53z m-228
11 c0 -1 -26 -27 -57 -57 l-58 -55 55 58 c50 53 60 62 60 54z m610 -7 c-34
-11 -60 -11 -35 0 11 5 29 8 40 8 16 0 15 -2 -5 -8z m355 0 c25 -11 -1 -11
-35 0 -20 6 -21 8 -5 8 11 0 29 -3 40 -8z m635 -45 c30 -30 52 -55 49 -55 -2
0 -29 25 -59 55 -30 30 -52 55 -49 55 2 0 29 -25 59 -55z m-641 9 c206 -47
409 -186 517 -353 27 -43 45 -61 60 -61 29 0 56 -55 42 -85 -7 -16 -4 -39 11
-90 33 -106 45 -238 31 -342 -10 -82 -22 -121 -94 -321 -14 -41 -24 -77 -22
-81 3 -4 -18 -32 -47 -62 -28 -29 -51 -58 -52 -64 0 -5 -7 -9 -14 -7 -16 3
-43 -17 -36 -28 2 -4 -5 -16 -18 -26 l-22 -19 19 23 c11 12 17 22 13 22 -3 0
-49 -24 -101 -54 -211 -120 -389 -162 -574 -136 -265 36 -478 169 -617 385
-97 149 -138 287 -138 465 0 178 41 315 138 465 194 300 557 449 904 369z
m516 -4 c43 -34 64 -59 65 -77 0 -21 -61 -83 -81 -83 -23 0 -119 86 -119 106
0 21 60 84 80 84 9 0 34 -14 55 -30z m-985 10 c-8 -5 -19 -10 -25 -10 -5 0 -3
5 5 10 8 5 20 10 25 10 6 0 3 -5 -5 -10z m580 0 c8 -5 11 -10 5 -10 -5 0 -17
5 -25 10 -8 5 -10 10 -5 10 6 0 17 -5 25 -10z m-1028 -106 c63 -44 60 -68 -16
-146 -20 -21 -41 -38 -46 -38 -5 0 -28 18 -50 39 -38 36 -40 42 -30 63 12 23
90 108 99 108 3 0 22 -12 43 -26z m-162 13 c0 -2 -10 -12 -22 -23 l-23 -19 19
23 c18 21 26 27 26 19z m410 -1 c0 -2 -12 -11 -27 -20 l-28 -17 24 20 c23 21
31 25 31 17z m1395 -16 c10 -11 16 -20 13 -20 -3 0 -13 9 -23 20 -10 11 -16
20 -13 20 3 0 13 -9 23 -20z m-394 -7 c13 -16 12 -17 -3 -4 -10 7 -18 15 -18
17 0 8 8 3 21 -13z m-1071 -26 c0 -2 -12 -14 -27 -28 l-28 -24 24 28 c23 25
31 32 31 24z m1130 -22 c13 -14 21 -25 18 -25 -2 0 -15 11 -28 25 -13 14 -21
25 -18 25 2 0 15 -11 28 -25z m294 -28 c42 -61 44 -80 14 -101 -35 -25 -54
-19 -89 24 -23 29 -36 37 -44 30 -15 -13 -43 16 -29 30 23 22 90 69 100 70 6
0 28 -24 48 -53z m96 8 c17 -25 29 -45 26 -45 -3 0 -19 20 -36 45 -17 25 -29
45 -26 45 3 0 19 -20 36 -45z m-1940 -15 c-12 -16 -24 -30 -26 -30 -3 0 4 14
16 30 12 17 24 30 26 30 3 0 -4 -13 -16 -30z m320 -43 c0 -2 -12 -14 -27 -28
l-28 -24 24 28 c23 25 31 32 31 24z m1330 -22 c13 -14 21 -25 18 -25 -2 0 -15
11 -28 25 -13 14 -21 25 -18 25 2 0 15 -11 28 -25z m-1697 -10 c-3 -9 -8 -14
-10 -11 -3 3 -2 9 2 15 9 16 15 13 8 -4z m2045 -10 c-3 -3 -9 2 -12 12 -6 14
-5 15 5 6 7 -7 10 -15 7 -18z m-1896 -14 c56 -31 62 -39 49 -59 -6 -11 -15 -9
-42 7 -47 29 -56 27 -79 -19 l-20 -40 45 -22 c48 -24 50 -25 35 -48 -7 -12
-18 -10 -69 15 -45 21 -60 33 -56 45 7 21 75 150 80 150 2 0 28 -13 57 -29z
m1599 -28 c13 -16 12 -17 -3 -4 -10 7 -18 15 -18 17 0 8 8 3 21 -13z m256 -53
c12 -25 26 -59 29 -77 6 -29 3 -33 -35 -52 -65 -34 -76 -29 -112 45 -37 74
-34 88 22 116 50 26 70 19 96 -32z m-2066 -27 c-12 -20 -14 -14 -5 12 4 9 9
14 11 11 3 -2 0 -13 -6 -23z m-30 -80 c-12 -20 -14 -14 -5 12 4 9 9 14 11 11
3 -2 0 -13 -6 -23z m2229 -8 c0 -5 -5 -3 -10 5 -5 8 -10 20 -10 25 0 6 5 3 10
-5 5 -8 10 -19 10 -25z m-2114 0 c10 -8 14 -15 7 -15 -19 0 -43 11 -43 21 0
13 14 11 36 -6z m-16 -25 c8 -5 12 -12 9 -15 -8 -8 -39 5 -39 16 0 11 11 11
30 -1z m171 -37 c-12 -20 -14 -14 -5 12 4 9 9 14 11 11 3 -2 0 -13 -6 -23z
m1689 -8 c0 -5 -5 -3 -10 5 -5 8 -10 20 -10 25 0 6 5 3 10 -5 5 -8 10 -19 10
-25z m205 -10 c0 -13 -8 -21 -21 -23 -14 -2 -21 -9 -19 -20 15 -74 15 -74 40
-68 21 5 25 3 25 -18 0 -22 -6 -25 -63 -35 -82 -14 -79 -15 -75 12 2 14 11 23
27 25 20 3 22 8 17 34 -3 17 -6 37 -6 46 0 11 -7 13 -30 9 -27 -6 -30 -4 -30
17 0 22 6 26 53 34 68 13 82 11 82 -13z m-2188 -7 c-3 -8 -6 -5 -6 6 -1 11 2
17 5 13 3 -3 4 -12 1 -19z m2282 -28 c0 -9 -4 -8 -9 5 -5 11 -9 27 -9 35 0 9
4 8 9 -5 5 -11 9 -27 9 -35z m-2292 -12 c-3 -8 -6 -5 -6 6 -1 11 2 17 5 13 3
-3 4 -12 1 -19z m277 -47 c-4 -17 -9 -30 -11 -27 -3 2 -2 19 2 36 9 41 17 33
9 -9z m1744 -16 c0 -16 -2 -15 -8 5 -11 34 -11 60 0 35 5 -11 8 -29 8 -40z
m-1907 -69 c4 -5 26 6 48 23 l41 33 0 -27 c0 -17 -11 -35 -30 -52 -37 -31 -39
-53 -5 -53 19 0 25 -5 25 -22 0 -22 -3 -23 -70 -20 -66 3 -70 5 -70 28 0 19 5
24 25 24 30 0 31 9 5 43 -11 14 -20 40 -20 57 l0 33 22 -29 c12 -16 25 -33 29
-38z m-134 -133 c-2 -27 -3 -5 -3 47 0 52 1 74 3 48 2 -27 2 -69 0 -95z m2330
-5 c-2 -29 -3 -8 -3 47 0 55 1 79 3 53 2 -26 2 -71 0 -100z m-116 92 c34 0 39
-3 39 -24 0 -22 -3 -23 -52 -18 l-53 5 47 -39 c42 -34 48 -44 48 -76 0 -36 -2
-38 -32 -38 -70 0 -108 12 -108 32 0 18 6 20 50 16 28 -1 50 -1 50 2 -1 3 -21
21 -45 40 -40 31 -45 40 -45 74 0 38 1 38 31 32 17 -3 49 -6 70 -6z m-2001
-135 c7 -8 15 -43 17 -78 6 -72 7 -71 -71 -82 -44 -7 -46 -6 -57 21 -19 51
-24 125 -8 135 31 19 41 11 34 -31 -10 -57 1 -82 33 -78 22 2 28 9 30 34 2 19
-3 38 -12 47 -9 9 -16 23 -16 31 0 20 34 21 50 1z m88 -105 c0 -9 -3 -7 -8 5
-5 11 -8 29 -8 40 0 16 2 15 8 -5 4 -14 8 -32 8 -40z m1739 28 c-3 -7 -5 -2
-5 12 0 14 2 19 5 13 2 -7 2 -19 0 -25z m270 -70 c-3 -8 -6 -5 -6 6 -1 11 2
17 5 13 3 -3 4 -12 1 -19z m-2280 -30 c-3 -8 -6 -5 -6 6 -1 11 2 17 5 13 3 -3
4 -12 1 -19z m303 -33 c0 -5 -5 -3 -10 5 -5 8 -10 20 -10 25 0 6 5 3 10 -5 5
-8 10 -19 10 -25z m1671 8 c-12 -20 -14 -14 -5 12 4 9 9 14 11 11 3 -2 0 -13
-6 -23z m-1941 -78 c0 -5 -5 -3 -10 5 -5 8 -10 20 -10 25 0 6 5 3 10 -5 5 -8
10 -19 10 -25z m2211 8 c-12 -20 -14 -14 -5 12 4 9 9 14 11 11 3 -2 0 -13 -6
-23z m-360 -116 c-10 -9 -11 -8 -5 6 3 10 9 15 12 12 3 -3 0 -11 -7 -18z m99
3 c8 -5 12 -12 9 -15 -8 -8 -39 5 -39 16 0 11 11 11 30 -1z m-1575 -26 c9 -15
12 -23 6 -20 -11 7 -35 46 -28 46 3 0 12 -12 22 -26z m1565 -9 c14 -16 10 -18
-14 -9 -9 3 -16 10 -16 15 0 14 16 11 30 -6z m-1856 -51 c3 -8 2 -12 -4 -9 -6
3 -10 10 -10 16 0 14 7 11 14 -7z m346 -9 c13 -14 21 -25 18 -25 -2 0 -15 11
-28 25 -13 14 -21 25 -18 25 2 0 15 -11 28 -25z m1691 2 c-10 -9 -11 -8 -5 6
3 10 9 15 12 12 3 -3 0 -11 -7 -18z m-1731 -58 c41 -47 50 -63 39 -70 -9 -5
-21 -1 -36 13 l-23 22 -35 -34 c-32 -31 -36 -33 -51 -18 -15 15 -14 19 20 48
35 31 36 34 21 57 -15 22 -13 43 4 43 4 0 32 -27 61 -61z m1554 30 c14 -11 26
-29 26 -38 0 -17 -77 -121 -89 -121 -3 0 -28 20 -56 44 -43 38 -48 45 -36 60
10 12 17 13 27 5 10 -8 22 -1 50 30 20 23 40 41 44 41 4 0 19 -9 34 -21z
m-1804 -54 c17 -25 29 -45 26 -45 -3 0 -19 20 -36 45 -17 25 -29 45 -26 45 3
0 19 -20 36 -45z m390 -20 c13 -14 21 -25 18 -25 -2 0 -15 11 -28 25 -13 14
-21 25 -18 25 2 0 15 -11 28 -25z m1530 1 c0 -2 -8 -10 -17 -17 -16 -13 -17
-12 -4 4 13 16 21 21 21 13z m-1865 -56 c10 -11 16 -20 13 -20 -3 0 -13 9 -23
20 -10 11 -16 20 -13 20 3 0 13 -9 23 -20z m1435 16 c0 -2 -8 -10 -17 -17 -16
-13 -17 -12 -4 4 13 16 21 21 21 13z m154 -59 c36 -46 37 -49 20 -62 -20 -15
-18 -17 -63 44 l-18 24 -30 -23 -31 -22 24 -35 c28 -42 28 -43 10 -68 -12 -16
-16 -17 -30 -6 -9 7 -13 18 -10 23 3 5 -7 27 -22 49 -27 39 -27 40 -7 54 11 8
39 30 63 50 24 20 46 32 50 28 3 -4 23 -30 44 -56z m246 60 c0 -2 -10 -12 -22
-23 l-23 -19 19 23 c18 21 26 27 26 19z m-1503 -44 c52 -40 57 -46 51 -65 -3
-7 -22 0 -50 20 -57 39 -73 30 -18 -10 22 -17 40 -34 40 -38 0 -20 -19 -18
-54 6 -55 37 -65 24 -11 -15 36 -26 44 -36 35 -47 -10 -11 -22 -6 -68 28 -32
23 -59 43 -61 44 -5 5 71 114 79 114 3 0 29 -17 57 -37z m107 -2 c-2 -3 -12 3
-22 13 -16 17 -16 18 5 5 12 -7 20 -15 17 -18z m956 14 c0 -2 -10 -9 -22 -15
-22 -11 -22 -10 -4 4 21 17 26 19 26 11z m-1310 -80 c30 -30 52 -55 49 -55 -2
0 -29 25 -59 55 -30 30 -52 55 -49 55 2 0 29 -25 59 -55z m1700 52 c0 -1 -26
-27 -57 -57 l-58 -55 55 58 c50 53 60 62 60 54z m-440 -45 c0 -10 -22 -32 -32
-32 -13 0 -9 28 5 33 19 8 27 8 27 -1z m-720 -22 c8 -5 11 -10 5 -10 -5 0 -17
5 -25 10 -8 5 -10 10 -5 10 6 0 17 -5 25 -10z m580 0 c-8 -5 -19 -10 -25 -10
-5 0 -3 5 5 10 8 5 20 10 25 10 6 0 3 -5 -5 -10z m-693 -25 c80 -36 90 -55 50
-101 l-23 -27 -47 21 c-40 18 -48 19 -55 6 -10 -18 -42 -8 -42 12 0 16 47 114
55 114 2 0 30 -11 62 -25z m874 -36 c24 -49 28 -64 17 -70 -22 -15 -27 -11
-58 51 -28 55 -29 60 -12 69 9 6 18 11 19 11 2 0 17 -28 34 -61z m-628 24 c-7
-2 -19 -2 -25 0 -7 3 -2 5 12 5 14 0 19 -2 13 -5z m320 0 c-7 -2 -19 -2 -25 0
-7 3 -2 5 12 5 14 0 19 -2 13 -5z m223 -145 c-23 -16 -34 -6 -46 42 -7 28 -13
50 -15 50 -1 0 -17 -5 -36 -11 -19 -6 -39 -12 -46 -14 -8 -3 -8 -16 3 -51 14
-47 9 -63 -18 -64 -7 0 -51 131 -46 135 2 2 41 14 88 27 l85 24 21 -65 c14
-45 17 -68 10 -73z m-1121 112 c10 -11 16 -20 13 -20 -3 0 -13 9 -23 20 -10
11 -16 20 -13 20 3 0 13 -9 23 -20z m1475 17 c0 -2 -10 -12 -22 -23 l-23 -19
19 23 c18 21 26 27 26 19z m-983 -53 c-5 -27 -3 -29 56 -39 35 -6 37 -4 37 20
0 27 6 30 29 16 10 -7 12 -22 7 -60 -9 -70 -14 -80 -37 -74 -15 4 -19 13 -17
31 3 23 -2 27 -32 34 -44 9 -60 4 -60 -22 0 -14 -7 -20 -21 -20 -20 0 -21 4
-15 54 8 72 14 86 38 86 16 0 19 -5 15 -26z m-377 -50 c0 -3 -20 9 -45 26 -25
17 -45 33 -45 36 0 3 20 -9 45 -26 25 -17 45 -33 45 -36z m1310 62 c0 -2 -8
-10 -17 -17 -16 -13 -17 -12 -4 4 13 16 21 21 21 13z m-567 -23 c11 -18 17
-99 8 -113 -13 -19 -145 -27 -166 -10 -22 18 -20 106 3 119 20 12 149 15 155
4z m-688 -71 c-3 -3 -11 0 -18 7 -9 10 -8 11 6 5 10 -3 15 -9 12 -12z m1130 8
c-3 -5 -12 -10 -18 -10 -7 0 -6 4 3 10 19 12 23 12 15 0z m-925 -90 c8 -5 11
-10 5 -10 -5 0 -17 5 -25 10 -8 5 -10 10 -5 10 6 0 17 -5 25 -10z m720 0 c-8
-5 -19 -10 -25 -10 -5 0 -3 5 5 10 8 5 20 10 25 10 6 0 3 -5 -5 -10z m-605
-30 c13 -5 14 -9 5 -9 -8 0 -24 4 -35 9 -13 5 -14 9 -5 9 8 0 24 -4 35 -9z
m500 0 c-11 -5 -27 -9 -35 -9 -9 0 -8 4 5 9 11 5 27 9 35 9 9 0 8 -4 -5 -9z
m-212 -27 c-29 -2 -77 -2 -105 0 -29 2 -6 3 52 3 58 0 81 -1 53 -3z"/>
<path d="M1115 2240 c-3 -6 0 -13 9 -16 23 -9 69 0 74 14 5 15 -74 17 -83 2z"/>
<path d="M1434 2196 c-8 -34 0 -44 42 -52 26 -5 39 -3 45 7 17 27 9 47 -22 58
-47 16 -58 14 -65 -13z"/>
<path d="M832 1673 c-54 -19 -77 -51 -67 -95 4 -18 8 -57 10 -87 2 -29 9 -59
14 -64 6 -6 11 -21 11 -33 0 -28 38 -114 51 -114 5 0 12 7 15 15 5 11 14 6 36
-22 48 -61 58 -88 58 -158 0 -69 -20 -124 -58 -158 -19 -17 -20 -17 -39 9 -30
40 -43 23 -43 -55 0 -54 4 -74 21 -95 34 -43 76 -60 154 -60 62 0 76 4 119 32
28 18 59 32 71 32 19 0 20 -6 20 -83 0 -76 3 -88 30 -132 37 -59 101 -110 158
-126 57 -15 169 -6 242 21 33 13 90 42 127 67 114 75 168 162 168 273 0 80
-22 132 -84 198 -25 27 -46 56 -46 65 0 9 -8 32 -17 52 -17 36 -17 36 9 58 33
28 41 44 68 142 30 109 55 154 90 167 37 12 49 46 24 66 -34 25 -106 8 -219
-53 -57 -30 -110 -55 -120 -55 -9 0 -36 15 -59 33 l-44 33 13 38 c15 44 11 39
53 60 46 24 35 40 -27 44 -50 3 -53 1 -96 -42 -24 -26 -46 -46 -48 -46 -3 0
-20 6 -38 14 -19 8 -47 12 -62 9 -16 -3 -62 2 -102 12 -73 17 -74 17 -114 -5
l-39 -23 -28 22 c-14 11 -32 21 -38 21 -6 1 -29 9 -51 20 -47 23 -66 23 -123
3z m778 -2 c0 -5 -12 -12 -26 -15 -18 -5 -32 -21 -49 -59 -13 -29 -24 -46 -24
-39 -2 24 27 80 49 95 20 14 20 16 3 20 -10 3 -4 5 15 6 17 0 32 -3 32 -8z
m-628 -33 c35 -17 75 -44 89 -60 14 -15 30 -28 36 -28 24 0 107 -106 144 -183
44 -94 51 -96 14 -4 l-25 62 34 -38 c18 -22 46 -65 63 -98 17 -32 33 -56 36
-53 15 15 39 -117 41 -227 0 -47 6 -83 14 -91 9 -10 12 -5 12 23 0 19 11 74
25 123 18 66 23 106 20 154 -5 81 9 78 43 -8 27 -70 34 -181 20 -290 l-8 -55
25 70 c13 39 24 80 24 92 1 29 17 38 24 13 3 -11 1 -20 -4 -20 -5 0 -9 -13 -9
-29 0 -53 -30 -176 -46 -188 -21 -15 -41 -7 -81 30 -18 17 -33 29 -33 26 3
-31 59 -199 63 -188 3 8 6 -1 6 -19 2 -56 -13 -72 -67 -72 -62 0 -118 16 -144
42 -18 18 -19 28 -13 93 6 72 6 72 -24 98 -17 14 -40 28 -51 32 -18 6 -17 10
20 63 22 31 42 73 45 92 4 29 3 27 -10 -12 -19 -59 -109 -158 -169 -187 -30
-15 -62 -21 -112 -21 -64 0 -73 3 -104 31 -19 17 -28 27 -20 21 8 -5 47 -13
87 -16 82 -8 108 1 160 56 20 21 34 48 38 73 l6 40 -18 -24 c-10 -13 -37 -44
-59 -68 -41 -42 -43 -43 -106 -43 -77 0 -128 9 -128 22 0 5 12 7 28 4 15 -4
53 -7 84 -9 54 -2 59 0 98 38 22 21 40 44 40 50 0 5 20 28 45 50 36 32 47 49
54 85 6 34 10 41 16 27 4 -11 -1 -40 -14 -76 -11 -32 -20 -73 -20 -92 2 -33 2
-33 6 -5 3 20 7 25 13 17 8 -14 30 92 30 147 0 75 -74 201 -150 254 -38 27
-47 37 -35 42 9 3 13 2 10 -4 -3 -6 -2 -10 4 -10 5 0 30 -16 55 -35 25 -19 43
-29 40 -22 -2 7 -21 23 -41 37 -21 14 -46 33 -56 43 -13 13 -28 16 -55 13 -27
-4 -31 -3 -12 2 l25 8 -22 8 c-28 9 -30 26 -4 33 13 3 18 10 14 21 -6 13 1 14
48 9 41 -5 50 -4 35 5 -11 6 -39 8 -70 4 -28 -3 -71 -8 -96 -10 -25 -2 -30 -1
-12 1 37 5 40 13 12 30 -11 7 -26 26 -34 42 -13 25 -14 31 -1 41 8 6 22 10 32
7 14 -4 14 -5 -4 -6 -35 -2 -36 -17 -3 -54 27 -31 35 -34 68 -30 20 3 47 6 60
6 12 1 22 5 22 8 0 15 -55 54 -119 84 -35 17 -111 13 -111 -6 0 -5 -5 -8 -12
-6 -7 1 -15 -11 -19 -28 l-7 -30 -1 28 c-2 43 43 72 116 76 12 0 51 -13 85
-31z m261 -27 c5 -5 -11 -9 -42 -8 -28 0 -51 4 -51 9 0 5 -15 1 -32 -7 l-33
-16 25 21 c20 17 34 20 74 16 27 -3 54 -10 59 -15z m-263 -45 c0 -5 -7 -1 -15
10 -8 10 -14 24 -14 29 0 6 6 1 14 -9 8 -11 15 -24 15 -30z m447 10 c65 -31
169 -101 176 -119 3 -8 2 -20 -3 -27 -6 -9 -9 -7 -14 8 -4 11 -14 19 -23 18
-10 -2 -28 10 -41 26 -13 16 -33 33 -44 39 -14 8 -12 0 11 -32 29 -39 41 -89
23 -89 -16 0 -52 32 -52 46 0 8 -8 27 -17 41 -14 22 -15 26 -3 19 9 -4 8 -2
-2 7 -10 8 -15 17 -11 20 3 4 1 7 -6 7 -7 0 -10 4 -7 9 3 5 -13 12 -36 15 -23
4 -46 12 -49 18 -5 8 -20 6 -53 -6 -56 -21 -59 -41 -15 -91 36 -40 50 -40 23
0 -20 30 -7 47 29 37 18 -5 18 -6 3 -17 -23 -17 -21 -20 22 -37 95 -40 91 -37
48 -37 -36 -1 -38 -2 -21 -15 19 -13 32 -56 17 -56 -5 0 -21 14 -37 30 -16 17
-38 30 -50 30 -22 0 -65 33 -65 51 0 5 -10 23 -22 39 -27 37 -15 54 51 74 67
21 109 19 168 -8z m542 -5 c9 -6 10 -11 2 -15 -6 -4 -11 -2 -11 3 0 16 -55 13
-97 -4 -19 -8 -63 -35 -98 -59 -61 -44 -115 -67 -115 -49 0 5 54 37 120 71
117 60 166 74 199 53z m-1112 -33 c-3 -8 -6 -5 -6 6 -1 11 2 17 5 13 3 -3 4
-12 1 -19z m1051 -15 c-9 -10 -25 -36 -37 -58 -12 -22 -20 -32 -17 -22 3 10 6
22 6 27 0 10 49 70 57 70 4 0 -1 -8 -9 -17z m-75 -11 c-12 -9 -33 -43 -47 -75
-17 -38 -35 -63 -55 -75 -17 -9 -31 -24 -31 -32 0 -8 -14 9 -31 38 -17 30 -28
56 -25 59 3 3 13 -11 22 -31 10 -20 23 -36 30 -36 24 0 66 45 89 95 12 29 31
58 41 64 28 16 32 13 7 -7z m-455 -29 c5 -18 -23 -16 -39 3 -11 14 -10 15 11
12 13 -1 25 -9 28 -15z m-575 -18 c-7 -21 -13 -19 -13 6 0 11 4 18 10 14 5 -3
7 -12 3 -20z m135 -32 c-10 -2 -28 -2 -40 0 -13 2 -5 4 17 4 22 1 32 -1 23 -4z
m-36 -24 c-24 -9 -90 0 -73 10 5 4 29 5 53 2 37 -3 40 -5 20 -12z m54 -35 c2
-20 1 -34 -2 -32 -9 10 -22 66 -16 72 9 10 15 -2 18 -40z m891 14 c-3 -7 -5
-2 -5 12 0 14 2 19 5 13 2 -7 2 -19 0 -25z m-1010 0 c-2 -7 2 -20 9 -28 9 -10
10 -20 4 -30 -8 -12 -10 -10 -10 8 0 12 -4 22 -10 22 -5 0 -10 9 -10 20 0 11
5 20 11 20 6 0 9 -6 6 -12z m70 -25 c-3 -10 -5 -4 -5 12 0 17 2 24 5 18 2 -7
2 -21 0 -30z m91 26 c-2 -6 -8 -10 -13 -10 -5 0 -11 4 -13 10 -2 6 4 11 13 11
9 0 15 -5 13 -11z m18 -74 c0 -30 -1 -55 -3 -55 -7 0 -24 84 -19 96 11 30 21
12 22 -41z m616 26 c38 -33 35 -41 -11 -35 -31 4 -40 2 -43 -11 -2 -13 -9 -9
-33 17 -16 18 -23 27 -15 21 21 -19 32 -16 20 6 -14 28 -14 29 22 27 19 0 45
-12 60 -25z m-536 -23 c16 -18 17 -21 2 -15 -11 4 -18 0 -20 -11 -2 -9 -6 -2
-9 16 -6 38 1 40 27 10z m731 0 c-3 -8 -6 -5 -6 6 -1 11 2 17 5 13 3 -3 4 -12
1 -19z m-867 -67 c17 -28 37 -48 44 -45 7 3 18 -6 25 -19 11 -20 10 -29 -8
-58 -17 -28 -21 -30 -21 -13 0 22 -40 106 -74 157 -10 15 -14 27 -8 27 5 0 24
-22 42 -49z m776 -29 c-3 -26 -2 -41 4 -37 10 6 50 -114 50 -152 0 -13 4 -22
9 -18 9 5 56 -104 47 -112 -2 -2 -14 14 -27 37 l-23 41 -28 -83 c-15 -46 -27
-93 -28 -105 0 -13 -4 -23 -10 -23 -14 0 -14 2 17 122 25 103 26 110 13 193
-7 47 -15 85 -18 85 -2 0 -15 -9 -29 -20 -39 -30 -48 -24 -18 12 23 27 26 39
23 85 -3 46 -1 51 10 36 9 -12 12 -33 8 -61z m74 39 c-6 -11 -20 -26 -33 -32
-19 -10 -19 -8 6 18 15 16 27 36 28 44 0 9 2 10 5 2 3 -7 0 -21 -6 -32z m-670
9 c0 -5 -2 -10 -4 -10 -3 0 -8 5 -11 10 -3 6 -1 10 4 10 6 0 11 -4 11 -10z
m-110 -294 c0 -66 -33 -88 -52 -34 -10 29 -12 30 -25 13 -7 -11 -13 -26 -13
-36 0 -12 -6 -15 -25 -11 -28 5 -32 17 -11 29 8 4 28 27 44 49 25 34 35 41 56
37 23 -5 26 -10 26 -47z m852 -28 c49 -165 -205 -391 -443 -392 -83 0 -173 41
-202 92 -19 33 -26 127 -10 143 4 4 7 -18 5 -49 -3 -46 1 -63 20 -92 84 -126
347 -100 510 49 73 67 110 136 110 207 1 42 -5 63 -21 84 -26 36 -27 53 -1 22
11 -13 25 -42 32 -64z m-802 55 c0 -5 -5 -15 -10 -23 -8 -12 -10 -11 -10 8 0
12 5 22 10 22 6 0 10 -3 10 -7z m-228 -65 c-9 -9 -12 -7 -12 12 0 19 3 21 12
12 9 -9 9 -15 0 -24z m116 -28 c0 -16 -4 -30 -9 -30 -10 0 -12 43 -2 53 10 10
10 10 11 -23z m932 -139 c0 -6 -4 -12 -8 -15 -5 -3 -9 1 -9 9 0 8 4 15 9 15 4
0 8 -4 8 -9z m-50 -87 c0 -8 -4 -12 -10 -9 -5 3 -10 10 -10 16 0 5 5 9 10 9 6
0 10 -7 10 -16z m-70 -64 c0 -5 -2 -10 -4 -10 -3 0 -8 5 -11 10 -3 6 -1 10 4
10 6 0 11 -4 11 -10z m-25 -10 c3 -5 1 -10 -4 -10 -6 0 -11 5 -11 10 0 6 2 10
4 10 3 0 8 -4 11 -10z m-55 -40 c0 -5 -5 -10 -11 -10 -5 0 -7 5 -4 10 3 6 8
10 11 10 2 0 4 -4 4 -10z m-203 -72 c-3 -8 -6 -5 -6 6 -1 11 2 17 5 13 3 -3 4
-12 1 -19z"/>
<path d="M1160 1471 c0 -5 7 -15 17 -22 15 -13 15 -12 4 9 -12 23 -21 28 -21
13z"/>
<path d="M1135 1460 c3 -5 8 -10 11 -10 2 0 4 5 4 10 0 6 -5 10 -11 10 -5 0
-7 -4 -4 -10z"/>
<path d="M1220 1340 c0 -8 5 -22 10 -30 9 -13 10 -13 10 0 0 8 -5 22 -10 30
-9 13 -10 13 -10 0z"/>
<path d="M1200 1249 c0 -4 7 -24 16 -45 9 -22 20 -59 24 -84 7 -42 8 -43 9
-10 1 43 -14 99 -34 125 -8 11 -15 17 -15 14z"/>
<path d="M1311 1185 c18 -25 34 -43 37 -40 5 4 -56 85 -64 85 -3 0 9 -20 27
-45z"/>
<path d="M1382 1135 c0 -16 2 -22 5 -12 2 9 2 23 0 30 -3 6 -5 -1 -5 -18z"/>
<path d="M1265 933 c-14 -26 -23 -44 -19 -40 8 8 40 -34 36 -47 -2 -5 3 -4 11
2 14 12 27 7 27 -10 0 -5 -5 -6 -12 -2 -7 4 -8 3 -4 -5 6 -9 11 -9 21 -1 10 8
15 8 21 -1 4 -8 3 -9 -4 -5 -7 4 -13 2 -13 -3 -3 -21 -4 -26 -12 -38 -5 -9 -3
-11 6 -7 8 3 18 0 22 -6 3 -6 3 -9 -2 -8 -4 2 -8 0 -8 -3 0 -3 -7 -14 -15 -24
-8 -11 -10 -16 -3 -11 7 4 21 2 30 -4 17 -10 17 -10 -1 -8 -15 2 -20 -3 -21
-24 -2 -27 -2 -27 28 -11 16 8 26 18 21 22 -6 3 -9 27 -9 54 0 26 -3 47 -8 47
-5 0 -7 -7 -3 -15 8 -22 -2 -18 -14 5 -8 16 -8 20 2 18 17 -4 17 39 0 76 -10
21 -16 25 -22 16 -5 -7 -6 -20 -3 -29 4 -13 2 -12 -10 2 -8 10 -17 13 -19 7
-1 -5 -8 -2 -14 8 -9 14 -9 24 1 41 10 20 13 21 18 7 4 -10 3 -15 -3 -11 -6 3
-10 1 -10 -4 0 -6 0 -14 0 -18 -1 -18 29 -8 39 13 8 18 8 23 -2 21 -6 -1 -11
4 -9 11 1 8 -2 11 -9 6 -9 -5 -10 -2 -6 9 12 32 -1 17 -28 -30z m74 -61 c7
-13 6 -19 -2 -19 -7 0 -13 9 -13 19 0 10 1 18 3 18 1 0 7 -8 12 -18z m16 -182
c-3 -5 -12 -10 -18 -10 -7 0 -6 4 3 10 19 12 23 12 15 0z"/>
<path d="M1348 660 c-21 -13 -16 -44 8 -47 18 -3 17 -2 -1 6 l-20 8 20 5 c19
5 19 6 1 7 -20 1 -20 1 0 16 22 16 17 19 -8 5z"/>
<path d="M1571 1617 c-14 -18 -28 -86 -14 -72 12 11 35 76 29 82 -2 2 -8 -3
-15 -10z"/>
<path d="M434 1555 c-26 -61 -29 -80 -14 -90 6 -4 29 -29 50 -56 l39 -50 40
40 c22 22 47 53 55 69 15 28 14 30 -27 69 -37 36 -94 73 -112 73 -3 0 -17 -25
-31 -55z"/>
<path d="M619 1434 c-24 -46 -127 -130 -195 -160 l-65 -29 3 -87 c2 -48 7 -90
10 -93 11 -11 144 42 202 80 31 21 73 58 93 84 30 39 34 52 30 86 -4 42 -45
145 -57 145 -3 0 -13 -12 -21 -26z"/>
<path d="M381 1393 c-5 -27 -13 -63 -16 -81 l-7 -33 61 31 c55 27 60 32 49 48
-44 60 -63 82 -69 82 -4 0 -12 -21 -18 -47z"/>
<path d="M651 1166 c-51 -52 -131 -97 -213 -121 -32 -9 -58 -21 -58 -28 0 -22
44 -147 52 -147 16 0 93 42 130 71 46 37 100 119 122 186 27 81 18 91 -33 39z"/>
<path d="M1836 2001 c-23 -25 -20 -36 15 -66 30 -24 33 -25 50 -9 25 22 24 36
-3 61 -36 32 -44 34 -62 14z"/>
<path d="M396 1879 c-32 -37 -32 -44 -4 -63 21 -15 24 -14 50 11 33 31 35 44
10 66 -24 22 -26 22 -56 -14z"/>
<path d="M2011 1841 c-11 -7 -9 -14 9 -39 13 -17 28 -28 36 -25 19 7 18 13 -9
45 -15 20 -26 25 -36 19z"/>
<path d="M2103 1653 c-16 -6 -17 -34 -1 -68 12 -27 35 -32 60 -12 15 11 15 15
1 50 -14 35 -29 43 -60 30z"/>
<path d="M1980 541 c-14 -20 -17 -32 -9 -37 14 -9 64 40 55 55 -11 18 -23 13
-46 -18z"/>
<path d="M757 297 c-5 -15 30 -37 58 -37 32 0 9 32 -31 44 -14 4 -24 2 -27 -7z"/>
<path d="M1223 210 c-26 -10 -29 -28 -10 -53 9 -13 21 -15 50 -10 35 5 38 8
35 37 -2 25 -8 31 -28 33 -14 1 -35 -2 -47 -7z"/>
</g>
</svg>
