<?xml version="1.0" standalone="no"?>
<!DOCTYPE svg PUBLIC "-//W3C//DTD SVG 20010904//EN"
 "http://www.w3.org/TR/2001/REC-SVG-20010904/DTD/svg10.dtd">
<svg version="1.0" xmlns="http://www.w3.org/2000/svg"
 width="100.000000pt" height="100.000000pt" viewBox="0 0 100.000000 100.000000"
 preserveAspectRatio="xMidYMid meet">

<g transform="translate(0.000000,100.000000) scale(0.100000,-0.100000)"
fill="#000000" stroke="none">
<path d="M172 867 c-53 -56 -47 -133 14 -186 l34 -31 5 -122 c8 -188 37 -262
152 -393 40 -47 80 -85 88 -85 11 0 15 13 15 52 0 49 -3 54 -59 112 -57 60
-101 130 -101 161 0 12 13 15 65 15 l65 0 0 35 0 35 -70 0 -70 0 0 60 0 60 81
0 80 0 -3 42 -3 42 -82 17 c-97 21 -132 37 -168 81 -23 28 -27 39 -23 80 3 26
4 48 3 48 -1 0 -11 -11 -23 -23z"/>
<path d="M788 840 c4 -47 3 -52 -35 -89 -40 -41 -101 -65 -193 -77 l-47 -6 -7
-76 c-3 -41 -6 -180 -6 -309 0 -249 2 -259 47 -210 20 21 22 38 29 265 l7 242
43 0 44 0 0 -181 c0 -158 2 -180 15 -169 38 32 75 197 75 340 0 79 1 81 34
111 64 55 69 135 12 188 l-23 22 5 -51z"/>
</g>
</svg>
